<svg width="12" height="12" viewBox="0 0 12 12" fill="none" xmlns="http://www.w3.org/2000/svg">
<path d="M1.6481 11C1.48225 11 1.31628 10.9365 1.19005 10.8102C0.936649 10.5569 0.936649 10.1474 1.19005 9.89407L9.89387 1.18997C10.1471 0.936678 10.5567 0.936678 10.81 1.18997C11.0634 1.44325 11.0634 1.85279 10.81 2.10608L2.10614 10.8102C1.97909 10.9371 1.81395 11 1.6481 11Z" fill="#F44336"/>
<path d="M10.3519 11C10.1861 11 10.0202 10.9365 9.89387 10.8102L1.19005 2.10608C0.936649 1.85279 0.936649 1.44325 1.19005 1.18997C1.44333 0.936678 1.85274 0.936678 2.10614 1.18997L10.81 9.89407C11.0634 10.1474 11.0634 10.5569 10.81 10.8102C10.6836 10.9371 10.5178 11 10.3519 11Z" fill="#F44336"/>
</svg>
