<svg width="18" height="18" viewBox="0 0 18 18" fill="none" xmlns="http://www.w3.org/2000/svg">
<path d="M11.3332 13.5091C11.7013 13.5091 11.9998 13.2486 11.9998 12.9273V7.1091C11.9998 6.78782 11.7013 6.52728 11.3332 6.52728C10.965 6.52728 10.6665 6.78782 10.6665 7.1091V12.9273C10.6665 13.2486 10.965 13.5091 11.3332 13.5091Z" fill="#EF4823"/>
<path d="M6.66667 13.5091C7.0348 13.5091 7.33333 13.2486 7.33333 12.9273V7.1091C7.33333 6.78782 7.0348 6.52728 6.66667 6.52728C6.29853 6.52728 6 6.78782 6 7.1091V12.9273C6 13.2486 6.29853 13.5091 6.66667 13.5091Z" fill="#EF4823"/>
<path d="M11.6665 2.16364C12.0346 2.16364 12.3332 1.9031 12.3332 1.58182C12.3332 1.26054 12.0346 1 11.6665 1H6.33317C5.96504 1 5.6665 1.26054 5.6665 1.58182C5.6665 1.9031 5.96504 2.16364 6.33317 2.16364H11.6665Z" fill="#EF4823"/>
<path d="M1.66667 2.74545C1.29853 2.74545 1 3.00599 1 3.32727C1 3.64855 1.29853 3.90909 1.66667 3.90909H2.33333V14.6145C2.33333 15.9294 3.56 17 5.06667 17H12.9333C14.4399 17 15.6667 15.9295 15.6667 14.6145V3.90909H16.3333C16.7015 3.90909 17 3.64855 17 3.32727C17 3.00599 16.7015 2.74545 16.3333 2.74545H15H3H1.66667ZM14.3333 3.90909V14.6145C14.3333 15.2895 13.7067 15.8364 12.9333 15.8364H5.06667C4.29333 15.8364 3.66667 15.2895 3.66667 14.6145V3.90909H14.3333Z" fill="#EF4823"/>
</svg>
